<svg xmlns="http://www.w3.org/2000/svg" width="166" height="96" viewBox="0 0 166 96" fill="none">
  <rect width="166" height="96" rx="16" fill="#FCEDCF"/>
  <path opacity="0.1" fill-rule="evenodd" clip-rule="evenodd" d="M90.6417 75.1139L105.378 87.1093L105.378 87.1094C109.39 90.375 111.669 92.2298 114.011 92.8175C112.86 94.6361 112.732 97.0166 113.883 99.0098C115.534 101.87 119.191 102.849 122.051 101.198L179.01 68.3128C181.87 66.6617 182.85 63.0049 181.199 60.1451C180.048 58.1519 177.923 57.0719 175.773 57.1594C176.435 54.8374 175.968 51.9366 175.145 46.8292L171.917 26.775C169.873 14.0822 168.851 7.7358 165.2 5.59594C163.865 4.81352 162.35 4.38955 160.802 4.36517C156.57 4.29851 152.403 9.19244 144.067 18.9803L144.067 18.9804C143.196 20.0028 142.761 20.514 142.189 20.7149C141.972 20.7914 141.744 20.8339 141.513 20.8409C140.907 20.8592 140.317 20.5389 139.137 19.8983L127.718 13.7016C115.887 7.28175 109.972 4.07181 105.586 6.68212C101.199 9.29243 101.199 16.0224 101.199 29.4824L101.199 29.4824L101.199 40.4019C101.199 42.0147 101.199 42.8211 100.765 43.4137C100.728 43.4641 100.689 43.5129 100.648 43.56C100.165 44.1143 99.3782 44.2913 97.8048 44.6455C83.1528 47.9435 75.8269 49.5925 74.2909 54.5558C74.1684 54.9517 74.0734 55.3556 74.0067 55.7645C73.1703 60.8923 78.9941 65.6328 90.6417 75.1139ZM124.818 63.21C128.06 63.1811 131.232 64.1562 133.898 66.0014L137.581 68.5502C139.139 69.6284 141.25 68.4101 141.095 66.5217L140.73 62.0544C140.465 58.8242 141.207 55.5913 142.852 52.7989L144.573 49.8777C145.459 48.374 144.365 46.479 142.619 46.4942L138.605 46.5294C135.754 46.5543 132.95 45.8031 130.494 44.3563L127.034 42.3184C125.53 41.4327 123.636 42.527 123.651 44.2722L123.687 48.2837C123.712 51.1359 122.96 53.9412 121.512 56.3986L119.475 59.8566C118.589 61.3604 119.683 63.2557 121.428 63.2402L124.818 63.21Z" fill="url(#paint0_linear_779_1669)"/>
  <defs>
    <linearGradient id="paint0_linear_779_1669" x1="117.982" y1="39.6646" x2="130.722" y2="73.5375" gradientUnits="userSpaceOnUse">
      <stop stop-color="#F7BC31"/>
      <stop offset="1" stop-color="#F3DDAD"/>
    </linearGradient>
  </defs>
</svg>