<svg xmlns="http://www.w3.org/2000/svg" width="20" height="20" viewBox="0 0 20 20" fill="none">
  <path d="M0 2.85714C0 2.05917 0 1.66019 0.112233 1.33944C0.313257 0.764948 0.764948 0.313257 1.33944 0.112233C1.66019 0 2.05917 0 2.85714 0C7.64497 0 10.0389 0 11.9633 0.6734C15.4103 1.87954 18.1205 4.58969 19.3266 8.03665C20 9.96112 20 12.355 20 17.1429C20 17.9408 20 18.3398 19.8878 18.6606C19.6867 19.2351 19.2351 19.6867 18.6606 19.8878C18.3398 20 17.9408 20 17.1429 20C12.355 20 9.96112 20 8.03665 19.3266C4.58969 18.1205 1.87954 15.4103 0.6734 11.9633C0 10.0389 0 7.64497 0 2.85714Z" fill="#F8D177"/>
  <path d="M7 9.77778L8.37879 11.5651C8.55876 11.7984 8.90043 11.8263 9.11584 11.6252L13 8" stroke="#483510" stroke-width="2" stroke-linecap="round"/>
</svg>