<svg xmlns="http://www.w3.org/2000/svg" width="20" height="20" viewBox="0 0 20 20" fill="none">
  <path fill-rule="evenodd" clip-rule="evenodd" d="M10.0173 1.5C8.94743 1.50397 7.88665 1.69686 6.88367 2.06981C4.65923 2.88259 2.90748 4.63916 2.09842 6.86825C0.843428 10.0361 1.5994 13.6485 4.01877 16.0448C6.43814 18.4411 10.0528 19.1575 13.2008 17.8647L13.3255 17.8147L16.1847 17.8797H16.2196C16.6114 17.88 16.9863 17.7201 17.2576 17.437C17.5289 17.154 17.673 16.7722 17.6567 16.3801L17.5919 13.776V13.741C18.1737 12.5781 18.4843 11.2979 18.5 9.99723C18.5 7.74362 17.6063 5.58232 16.0155 3.98878C14.4247 2.39524 12.267 1.5 10.0173 1.5ZM10 8.06186C10.6654 8.06186 11.2048 7.52243 11.2048 6.85702C11.2048 6.19161 10.6654 5.65219 10 5.65219C9.33459 5.65219 8.79517 6.19161 8.79517 6.85702C8.79517 7.52243 9.33459 8.06186 10 8.06186ZM11.1339 10.0016C11.1339 9.38023 10.6303 8.87655 10.0089 8.87655C9.38762 8.87655 8.88394 9.38023 8.88394 10.0016V13.5051C8.88394 14.1264 9.38762 14.6301 10.0089 14.6301C10.6303 14.6301 11.1339 14.1264 11.1339 13.5051V10.0016Z" fill="url(#paint0_linear_87_18482)"/>
  <defs>
    <linearGradient id="paint0_linear_87_18482" x1="-1.51042" y1="0.391304" x2="17.5009" y2="14.7565" gradientUnits="userSpaceOnUse">
      <stop stop-color="#F6EDFF"/>
      <stop offset="1" stop-color="#AE7CFF"/>
    </linearGradient>
  </defs>
</svg>