<svg xmlns="http://www.w3.org/2000/svg" width="17" height="16" viewBox="0 0 17 16" fill="none">
<g opacity="0.8">
<circle cx="8.25" cy="8" r="8" fill="black" fill-opacity="0.32"/>
<path d="M8.23016 9.08661C8.24114 9.07562 8.25895 9.07562 8.26994 9.08661L9.85005 10.6667C10.1446 10.9613 10.6222 10.9613 10.9167 10.6667C11.2113 10.3722 11.2113 9.8946 10.9167 9.60005L9.33661 8.01994C9.32562 8.00895 9.32562 7.99114 9.33661 7.98016L10.9167 6.40005C11.2113 6.1055 11.2113 5.62793 10.9167 5.33338C10.6222 5.03883 10.1446 5.03883 9.85005 5.33338L8.26994 6.91349C8.25895 6.92448 8.24114 6.92448 8.23016 6.91349L6.65005 5.33338C6.3555 5.03883 5.87793 5.03883 5.58338 5.33338C5.28883 5.62793 5.28883 6.1055 5.58338 6.40005L7.16349 7.98016C7.17448 7.99114 7.17448 8.00895 7.16349 8.01994L5.58338 9.60005C5.28883 9.8946 5.28883 10.3722 5.58338 10.6667C5.87793 10.9613 6.3555 10.9613 6.65005 10.6667L8.23016 9.08661Z" fill="white"/>
</g>
</svg>