<svg xmlns="http://www.w3.org/2000/svg" width="20" height="20" viewBox="0 0 20 20" fill="none">
  <path fill-rule="evenodd" clip-rule="evenodd" d="M2.54807 4.12036C2.54807 3.01579 3.4435 2.12036 4.54807 2.12036H14.5054C15.61 2.12036 16.5054 3.01579 16.5054 4.12036V7.93032C16.5054 8.73082 16.1855 9.49812 15.6168 10.0615L9.2017 16.4171C8.63992 16.9736 7.8811 17.2859 7.0903 17.2859H4.54807C3.4435 17.2859 2.54807 16.3905 2.54807 15.2859V4.12036ZM6.29675 5.78589H12.7134C13.1967 5.78589 13.5884 6.17764 13.5884 6.66089C13.5884 7.14414 13.1967 7.53589 12.7134 7.53589H6.29675C5.8135 7.53589 5.42175 7.14414 5.42175 6.66089C5.42175 6.17764 5.8135 5.78589 6.29675 5.78589ZM10.3801 9.28589H6.29675C5.8135 9.28589 5.42175 9.67764 5.42175 10.1609C5.42175 10.6441 5.8135 11.0359 6.29675 11.0359H10.3801C10.8633 11.0359 11.2551 10.6441 11.2551 10.1609C11.2551 9.67764 10.8633 9.28589 10.3801 9.28589ZM12.6022 14.0734L14.9093 16.3833L17.6215 13.6678C18.2584 13.0301 18.2584 11.9963 17.6215 11.3586L17.6208 11.3579C16.9839 10.7202 15.9513 10.7202 15.3144 11.3579L12.6022 14.0734ZM11.4193 15.5075L11.1024 17.3343C11.0677 17.6579 11.3181 17.9099 11.6412 17.8767L13.4748 17.5664C13.656 17.5478 13.8312 17.4626 13.9661 17.3275L14.5023 16.7906L12.1952 14.4807L11.6575 15.0191C11.5235 15.1533 11.4386 15.3273 11.4193 15.5075Z" fill="url(#paint0_linear_87_18472)"/>
  <defs>
    <linearGradient id="paint0_linear_87_18472" x1="-0.205778" y1="1.09258" x2="17.3527" y2="14.1847" gradientUnits="userSpaceOnUse">
      <stop stop-color="#F6EDFF"/>
      <stop offset="1" stop-color="#AE7CFF"/>
    </linearGradient>
  </defs>
</svg>