<svg xmlns="http://www.w3.org/2000/svg" width="16" height="18" viewBox="0 0 16 18" fill="none">
  <path fill-rule="evenodd" clip-rule="evenodd" d="M2.51465 0.891602V6.33237C2.51465 6.66465 2.89631 6.85205 3.15923 6.64888L4.34498 5.73258C4.45315 5.649 4.60414 5.6491 4.71219 5.73283L5.89197 6.64712C6.15481 6.85081 6.53699 6.66348 6.53699 6.33095V0.891602H13.2402C14.3448 0.891602 15.2402 1.78703 15.2402 2.8916V9.92225C14.426 9.26315 13.389 8.86835 12.2598 8.86835C9.64157 8.86835 7.5191 10.9908 7.5191 13.609C7.5191 14.8831 8.02171 16.0398 8.83946 16.8916H2.24023C1.13566 16.8916 0.240234 15.9962 0.240234 14.8916V2.8916C0.240234 1.78703 1.13566 0.891602 2.24023 0.891602H2.51465ZM12.2598 17.109C14.1928 17.109 15.7598 15.542 15.7598 13.609C15.7598 11.676 14.1928 10.109 12.2598 10.109C10.3268 10.109 8.75977 11.676 8.75977 13.609C8.75977 15.542 10.3268 17.109 12.2598 17.109ZM12.1738 11.0203C12.4499 11.0203 12.6738 11.2441 12.6738 11.5203V13.5901L13.964 14.8803C14.1592 15.0756 14.1592 15.3922 13.964 15.5874C13.7687 15.7827 13.4521 15.7827 13.2569 15.5874L11.6738 14.0043V11.5203C11.6738 11.2441 11.8976 11.0203 12.1738 11.0203Z" fill="url(#paint0_linear_757_1882)"/>
  <defs>
    <linearGradient id="paint0_linear_757_1882" x1="-2.50802" y1="-0.166055" x2="15.3957" y2="12.78" gradientUnits="userSpaceOnUse">
      <stop stop-color="#F6EDFF"/>
      <stop offset="1" stop-color="#AE7CFF"/>
    </linearGradient>
  </defs>
</svg>