<svg xmlns="http://www.w3.org/2000/svg" width="20" height="20" viewBox="0 0 20 20" fill="none">
  <path fill-rule="evenodd" clip-rule="evenodd" d="M18.5 10C18.5 14.6944 14.6944 18.5 10 18.5C5.30558 18.5 1.5 14.6944 1.5 10C1.5 5.30558 5.30558 1.5 10 1.5C14.6944 1.5 18.5 5.30558 18.5 10ZM7.55763 6.47546C7.84794 6.76736 7.84665 7.23934 7.55474 7.52965C6.92239 8.15854 6.53229 9.02724 6.53229 9.98845C6.53229 11.9036 8.08483 13.4562 9.99999 13.4562C11.9152 13.4562 13.4677 11.9036 13.4677 9.98845C13.4677 9.02724 13.0776 8.15854 12.4452 7.52965C12.1533 7.23934 12.152 6.76736 12.4424 6.47546C12.7327 6.18355 13.2046 6.18226 13.4965 6.47256C14.3987 7.36981 14.9586 8.61445 14.9586 9.98845C14.9586 12.727 12.7385 14.947 9.99999 14.947C7.26145 14.947 5.04143 12.727 5.04143 9.98845C5.04143 8.61445 5.60126 7.36981 6.50344 6.47256C6.79535 6.18226 7.26732 6.18355 7.55763 6.47546ZM10.7454 5.60964C10.7454 5.19795 10.4117 4.86421 9.99999 4.86421C9.5883 4.86421 9.25456 5.19795 9.25456 5.60964V9.81488C9.25456 10.2266 9.5883 10.5603 9.99999 10.5603C10.4117 10.5603 10.7454 10.2266 10.7454 9.81488L10.7454 5.60964Z" fill="url(#paint0_linear_87_18545)"/>
  <defs>
    <linearGradient id="paint0_linear_87_18545" x1="-1.51042" y1="0.391304" x2="17.5009" y2="14.7565" gradientUnits="userSpaceOnUse">
      <stop stop-color="#F6EDFF"/>
      <stop offset="1" stop-color="#AE7CFF"/>
    </linearGradient>
  </defs>
</svg>