<svg xmlns="http://www.w3.org/2000/svg" width="20" height="20" viewBox="0 0 20 20" fill="none">
<path fill-rule="evenodd" clip-rule="evenodd" d="M2.01716 9.67782L3.19273 12.6911C3.56483 13.6448 3.75088 14.1217 4.14574 14.3915C4.5406 14.6613 5.0525 14.6613 6.07628 14.6613L14.1974 14.6613C15.2295 14.6613 15.7456 14.6613 16.1422 14.388C16.5387 14.1147 16.7224 13.6324 17.0899 12.6679L18.1735 9.82346L18.1735 9.82344C19.1068 7.37349 19.5734 6.14851 19.0248 5.45838C18.9587 5.37528 18.8843 5.2992 18.8026 5.23134C18.1246 4.66775 16.8898 5.10756 14.42 5.98717C14.1533 6.08215 14.02 6.12964 13.8978 6.09247C13.8822 6.08772 13.8669 6.08198 13.852 6.07529C13.7355 6.023 13.6662 5.89955 13.5277 5.65265L12.7447 4.25705C11.5884 2.19594 11.0102 1.16539 10.121 1.15084C9.23175 1.13628 8.62014 2.14736 7.39694 4.16951L6.47228 5.69811C6.34225 5.91306 6.27724 6.02054 6.17557 6.07054C6.14791 6.08414 6.11872 6.09439 6.08863 6.10106C5.97802 6.1256 5.86009 6.08236 5.62422 5.99588L5.62422 5.99588C3.35123 5.16249 2.21474 4.7458 1.55778 5.19235C1.38769 5.30796 1.24235 5.45632 1.13026 5.62875C0.697299 6.29474 1.13725 7.42243 2.01716 9.67782ZM3.76424 16.4763C3.76424 15.6834 4.40702 15.0406 5.19994 15.0406L15.0572 15.0406C15.8501 15.0406 16.4929 15.6834 16.4929 16.4763C16.4929 17.2693 15.8501 17.912 15.0572 17.912L5.19994 17.912C4.40702 17.912 3.76424 17.2692 3.76424 16.4763ZM8.20513 10.7751C8.69169 11.0503 9.08119 11.4692 9.32019 11.9745L9.65032 12.6725C9.78998 12.9678 10.2101 12.9678 10.3498 12.6725L10.6803 11.9741C10.9193 11.4691 11.3086 11.0503 11.7949 10.7752L12.3036 10.4874C12.5655 10.3393 12.5655 9.96207 12.3037 9.81393L11.7013 9.47313C11.2735 9.23114 10.9197 8.87733 10.6777 8.4496L10.3368 7.84713C10.1886 7.58527 9.81141 7.58531 9.6633 7.84719L9.32284 8.44916C9.08078 8.87717 8.72676 9.23119 8.29876 9.47327L7.6965 9.81391C7.43459 9.96204 7.4346 10.3393 7.69652 10.4875L8.20513 10.7751Z" fill="#C0C0CC"/>
</svg>