<svg xmlns="http://www.w3.org/2000/svg" width="24" height="24" viewBox="0 0 24 24" fill="none">
<path d="M11.9999 16.6751C13.8442 16.6751 15.3393 15.18 15.3393 13.3357C15.3393 11.4915 13.8442 9.99638 11.9999 9.99638C10.1557 9.99638 8.66057 11.4915 8.66057 13.3357C8.66057 15.18 10.1557 16.6751 11.9999 16.6751Z" fill="#C0C0CC"/>
<path fill-rule="evenodd" clip-rule="evenodd" d="M6.47141 4.3566C6.16933 4.96076 5.59007 5.37827 4.92138 5.4738L4.64679 5.51303C2.73443 5.78622 1.31396 7.42403 1.31396 9.3558L1.31396 13.3357C1.31396 17.1138 1.31396 19.0028 2.48766 20.1765C3.66135 21.3502 5.55038 21.3502 9.32843 21.3502H14.6714C18.4495 21.3502 20.3385 21.3502 21.5122 20.1765C22.6859 19.0028 22.6859 17.1138 22.6859 13.3357V9.3558C22.6859 7.42403 21.2654 5.78622 19.3531 5.51303L19.0785 5.4738C18.4098 5.37827 17.8305 4.96076 17.5285 4.3566C17.0054 3.31055 15.9363 2.64978 14.7668 2.64978H9.23311C8.06358 2.64978 6.99444 3.31055 6.47141 4.3566ZM11.9999 18.6787C14.9508 18.6787 17.3429 16.2866 17.3429 13.3357C17.3429 10.3849 14.9508 7.99276 11.9999 7.99276C9.04908 7.99276 6.65695 10.3849 6.65695 13.3357C6.65695 16.2866 9.04908 18.6787 11.9999 18.6787ZM20.6823 8.99457C20.6823 9.54786 20.2338 9.99638 19.6805 9.99638C19.1272 9.99638 18.6787 9.54786 18.6787 8.99457C18.6787 8.44129 19.1272 7.99276 19.6805 7.99276C20.2338 7.99276 20.6823 8.44129 20.6823 8.99457Z" fill="#C0C0CC"/>
</svg>