<svg width="20" height="20" viewBox="0 0 20 20" fill="none" xmlns="http://www.w3.org/2000/svg">
<g id="Apple Logo">
<path id="path4" d="M17.7339 15.3534C17.444 16.023 17.1009 16.6394 16.7034 17.2061C16.1615 17.9787 15.7179 18.5134 15.376 18.8104C14.8459 19.2978 14.2781 19.5474 13.6699 19.5616C13.2334 19.5616 12.7069 19.4374 12.0941 19.1854C11.4792 18.9346 10.9142 18.8104 10.3975 18.8104C9.85566 18.8104 9.27453 18.9346 8.65293 19.1854C8.03039 19.4374 7.52888 19.5687 7.14543 19.5818C6.56229 19.6066 5.98104 19.3499 5.40085 18.8104C5.03054 18.4874 4.56736 17.9337 4.01249 17.1493C3.41716 16.3117 2.92771 15.3404 2.54427 14.233C2.13362 13.0369 1.92776 11.8787 1.92776 10.7573C1.92776 9.47284 2.20532 8.36499 2.76125 7.43662C3.19817 6.69092 3.77942 6.10268 4.5069 5.67086C5.23439 5.23903 6.02043 5.01897 6.86694 5.00489C7.33012 5.00489 7.93752 5.14817 8.69233 5.42974C9.44501 5.71227 9.9283 5.85554 10.1402 5.85554C10.2986 5.85554 10.8355 5.68801 11.7457 5.35402C12.6063 5.04429 13.3328 4.91604 13.9279 4.96656C15.5404 5.0967 16.7519 5.73238 17.5576 6.87761C16.1154 7.75144 15.402 8.97535 15.4162 10.5454C15.4292 11.7684 15.8729 12.7861 16.7448 13.5941C17.14 13.9692 17.5813 14.259 18.0722 14.4649C17.9658 14.7737 17.8534 15.0694 17.7339 15.3534ZM14.0355 0.80019C14.0355 1.75874 13.6853 2.65374 12.9873 3.48214C12.1449 4.46694 11.1261 5.03601 10.0212 4.94621C10.0071 4.83122 9.99893 4.71019 9.99893 4.583C9.99893 3.6628 10.3995 2.67799 11.1109 1.87278C11.4661 1.46509 11.9178 1.1261 12.4656 0.855677C13.0121 0.589292 13.5292 0.441975 14.0154 0.416748C14.0296 0.544891 14.0355 0.673043 14.0355 0.800178V0.80019Z" fill="white"/>
</g>
</svg>
