<svg width="12" height="13" viewBox="0 0 12 13" fill="none" xmlns="http://www.w3.org/2000/svg">
<g id="Group 427318831">
<path id="Subtract" fill-rule="evenodd" clip-rule="evenodd" d="M0.585817 4.58579C3.05176e-05 5.17157 3.05176e-05 6.11438 3.05176e-05 8V9C3.05176e-05 10.8856 3.05176e-05 11.8284 0.585817 12.4142C1.1716 13 2.11441 13 4.00003 13H8.00003C9.88565 13 10.8285 13 11.4142 12.4142C12 11.8284 12 10.8856 12 9V8C12 6.11438 12 5.17157 11.4142 4.58579C10.8285 4 9.88565 4 8.00003 4H4.00003C2.11441 4 1.1716 4 0.585817 4.58579ZM7.38234 7.80897C7.38234 8.32062 7.10436 8.76734 6.6912 9.00634V9.88218C6.6912 10.2639 6.38176 10.5733 6.00004 10.5733C5.61833 10.5733 5.30889 10.2639 5.30889 9.88218V9.00636C4.89571 8.76736 4.61772 8.32063 4.61772 7.80897C4.61772 7.04555 5.2366 6.42667 6.00003 6.42667C6.76346 6.42667 7.38234 7.04555 7.38234 7.80897Z" fill="#919099"/>
<path id="Vector 318" d="M3.0695 4.84687L3.66786 3.15241C4.02146 2.15106 4.96802 1.48146 6.02997 1.48146V1.48146C7.1222 1.48145 8.08853 2.1891 8.41822 3.23038L8.93003 4.84687" stroke="#919099" stroke-width="1.5"/>
</g>
</svg>
