<svg width="21" height="20" viewBox="0 0 21 20" fill="none" xmlns="http://www.w3.org/2000/svg">
<g id="Facebook Logo" clip-path="url(#clip0_99_3762)">
<rect width="20" height="20" transform="translate(0.5)" fill="#1877F2"/>
<path id="path14" d="M20.0833 10.0582C20.0833 4.7655 15.7927 0.474899 10.5 0.474899C5.20727 0.474899 0.916672 4.7655 0.916672 10.0582C0.916672 14.8416 4.42116 18.8062 9.00261 19.5251V12.8284H6.56934V10.0582H9.00261V7.94691C9.00261 5.54508 10.4333 4.21839 12.6224 4.21839C13.6709 4.21839 14.7676 4.40556 14.7676 4.40556V6.76396H13.5591C12.3687 6.76396 11.9974 7.50268 11.9974 8.26055V10.0582H14.6553L14.2304 12.8284H11.9974V19.5251C16.5789 18.8062 20.0833 14.8416 20.0833 10.0582Z" fill="white"/>
</g>
<defs>
<clipPath id="clip0_99_3762">
<rect width="20" height="20" fill="white" transform="translate(0.5)"/>
</clipPath>
</defs>
</svg>
