<svg width="20" height="20" viewBox="0 0 20 20" fill="none" xmlns="http://www.w3.org/2000/svg">
<g id="Google Logo">
<g id="logo googleg 48dp">
<path id="Shape" fill-rule="evenodd" clip-rule="evenodd" d="M19.2 10.218C19.2 9.53849 19.139 8.88509 19.0258 8.25781H10V11.9648H15.1576C14.9354 13.1627 14.2602 14.1777 13.2453 14.8572V17.2618H16.3424C18.1546 15.5934 19.2 13.1366 19.2 10.218Z" fill="#4285F4"/>
<path id="Shape_2" fill-rule="evenodd" clip-rule="evenodd" d="M9.99996 19.5833C12.5875 19.5833 14.7568 18.7252 16.3424 17.2615L13.2452 14.857C12.3871 15.432 11.2894 15.7717 9.99996 15.7717C7.50394 15.7717 5.39125 14.086 4.63765 11.8208H1.43594V14.3038C3.01284 17.4358 6.25375 19.5833 9.99996 19.5833Z" fill="#34A853"/>
<path id="Shape_3" fill-rule="evenodd" clip-rule="evenodd" d="M4.63771 11.8209C4.44604 11.2459 4.33714 10.6317 4.33714 10.0001C4.33714 9.36845 4.44604 8.75424 4.63771 8.17924V5.69629H1.43601C0.786952 6.99004 0.416687 8.45368 0.416687 10.0001C0.416687 11.5465 0.786952 13.0101 1.43601 14.3039L4.63771 11.8209Z" fill="#FBBC05"/>
<path id="Shape_4" fill-rule="evenodd" clip-rule="evenodd" d="M9.99996 4.2283C11.407 4.2283 12.6702 4.71182 13.6634 5.66145L16.4121 2.91277C14.7524 1.36637 12.5831 0.416748 9.99996 0.416748C6.25375 0.416748 3.01284 2.56429 1.43594 5.69629L4.63765 8.17925C5.39125 5.9141 7.50394 4.2283 9.99996 4.2283Z" fill="#EA4335"/>
</g>
</g>
</svg>
