<svg width="16" height="16" viewBox="0 0 16 16" fill="none" xmlns="http://www.w3.org/2000/svg">
<g id="Frame">
<path id="Subtract" fill-rule="evenodd" clip-rule="evenodd" d="M13.2043 4.52331C12.6066 4.1123 11.6755 4.1123 10 4.1123H6C4.33103 4.1123 3.40066 4.1123 2.80272 4.51849L7.76123 7.5181C8.04137 7.68756 8.39394 7.68107 8.66765 7.50139L13.2043 4.52331ZM13.879 5.63552L9.38105 8.58816C8.68874 9.04263 7.79694 9.05906 7.08835 8.63041L2.12292 5.62662C2 6.2042 2 6.99178 2 8.1123V9.1123C2 10.9979 2 11.9407 2.58579 12.5265C3.17157 13.1123 4.11438 13.1123 6 13.1123H10C11.8856 13.1123 12.8284 13.1123 13.4142 12.5265C14 11.9407 14 10.9979 14 9.1123V8.1123C14 6.99753 14 6.21229 13.879 5.63552Z" fill="#919099"/>
</g>
</svg>
