<svg width="20" height="20" viewBox="0 0 20 20" fill="none" xmlns="http://www.w3.org/2000/svg">
<g clip-path="url(#clip0_1003_3283)">
<path d="M10.4286 5.42857H14.2857C14.3232 5.42857 14.3604 5.43596 14.395 5.45032C14.4297 5.46468 14.4612 5.48572 14.4877 5.51226C14.5143 5.53879 14.5353 5.57028 14.5497 5.60495C14.564 5.63961 14.5714 5.67677 14.5714 5.71429V14.2857C14.5714 14.3232 14.564 14.3604 14.5497 14.3951C14.5353 14.4297 14.5143 14.4612 14.4877 14.4877C14.4612 14.5143 14.4297 14.5353 14.395 14.5497C14.3604 14.564 14.3232 14.5714 14.2857 14.5714H10.4286C10.1255 14.5714 9.83477 14.6918 9.62045 14.9062C9.40612 15.1205 9.28571 15.4112 9.28571 15.7143V16.8571C9.28571 17.1602 9.40612 17.4509 9.62045 17.6653C9.83477 17.8796 10.1255 18 10.4286 18H16.2857C16.7404 18 17.1764 17.8194 17.4979 17.4979C17.8194 17.1764 18 16.7404 18 16.2857V3.71429C18 3.25963 17.8194 2.82359 17.4979 2.5021C17.1764 2.18061 16.7404 2 16.2857 2H10.4286C10.1255 2 9.83477 2.12041 9.62045 2.33474C9.40612 2.54906 9.28571 2.83975 9.28571 3.14286V4.28571C9.28571 4.58882 9.40612 4.87951 9.62045 5.09384C9.83477 5.30816 10.1255 5.42857 10.4286 5.42857Z" fill="url(#paint0_linear_1003_3283)"/>
<path d="M7.68857 7.99999H12.0686C12.2186 7.99999 12.3673 8.02955 12.5059 8.08698C12.6446 8.14441 12.7706 8.2286 12.8767 8.33472C12.9828 8.44085 13.067 8.56683 13.1244 8.70549C13.1819 8.84415 13.2114 8.99276 13.2114 9.14284V10.8571C13.2114 11.0072 13.1819 11.1558 13.1244 11.2945C13.067 11.4331 12.9828 11.5591 12.8767 11.6653C12.7706 11.7714 12.6446 11.8556 12.5059 11.913C12.3673 11.9704 12.2186 12 12.0686 12H7.68857C7.61279 12 7.54012 12.0301 7.48654 12.0837C7.43295 12.1373 7.40285 12.2099 7.40285 12.2857V13.6228C7.4024 13.7316 7.37094 13.8379 7.31218 13.9293C7.25341 14.0208 7.16978 14.0936 7.07109 14.1392C6.9724 14.1848 6.86275 14.2013 6.75502 14.1868C6.64728 14.1722 6.54593 14.1273 6.46285 14.0571L2.19999 10.4343C2.13919 10.3806 2.09049 10.3147 2.05714 10.2408C2.02378 10.1669 2.00653 10.0868 2.00653 10.0057C2.00653 9.92463 2.02378 9.84448 2.05714 9.77059C2.09049 9.6967 2.13919 9.63075 2.19999 9.57713L6.46285 5.94284C6.54593 5.87272 6.64728 5.82775 6.75502 5.81322C6.86275 5.79868 6.9724 5.81518 7.07109 5.86077C7.16978 5.90637 7.25341 5.97917 7.31218 6.07063C7.37094 6.16209 7.4024 6.26842 7.40285 6.37713V7.71427C7.40285 7.79005 7.43295 7.86272 7.48654 7.9163C7.54012 7.96988 7.61279 7.99999 7.68857 7.99999Z" fill="url(#paint1_linear_1003_3283)"/>
</g>
<defs>
<linearGradient id="paint0_linear_1003_3283" x1="-0.825646" y1="0.956522" x2="17.0654" y2="14.4696" gradientUnits="userSpaceOnUse">
<stop stop-color="#F6EDFF"/>
<stop offset="1" stop-color="#AE7CFF"/>
</linearGradient>
<linearGradient id="paint1_linear_1003_3283" x1="-0.825646" y1="0.956522" x2="17.0654" y2="14.4696" gradientUnits="userSpaceOnUse">
<stop stop-color="#F6EDFF"/>
<stop offset="1" stop-color="#AE7CFF"/>
</linearGradient>
<clipPath id="clip0_1003_3283">
<rect width="16" height="16" fill="white" transform="translate(2 2)"/>
</clipPath>
</defs>
</svg>
