<svg width="180" height="180" viewBox="0 0 180 180" fill="none" xmlns="http://www.w3.org/2000/svg">
<rect width="180" height="180" rx="54" fill="url(#paint0_linear_1002_4654)"/>
<path opacity="0.9" fill-rule="evenodd" clip-rule="evenodd" d="M93 37.976V31.487C93 29.8896 91.2197 28.9368 89.8906 29.8229L46.453 58.7813C43.671 60.636 42 63.7583 42 67.1018V116.677C42 121.476 44.2894 125.999 48.0364 128.998C54.1023 133.852 58.7239 137.301 72.9144 139.873C75.3175 140.309 77.5 138.431 77.5 135.988V82.7044C77.5 80.8416 78.3652 79.0844 79.8417 77.9486L111.458 53.6282C114.535 51.2618 118.702 50.8891 122.15 52.6722L125.53 54.4207C128.102 55.7509 128.452 59.2883 126.191 61.097L98.2518 83.4485C96.8285 84.5871 96 86.311 96 88.1337V138.121C96 143.415 102.357 146.115 106.167 142.438L134.111 115.468C137.235 112.453 139 108.298 139 103.956V57.0894C139 55.6443 138.221 54.3115 136.961 53.6031L120.655 44.431C117.215 42.4961 112.959 42.7653 109.791 45.1182L69.9965 74.6684C66.6832 77.1288 62.1988 77.3011 58.7066 75.1022L58.5367 74.9953C54.9346 72.7273 54.774 67.5341 58.2289 65.0478L91.3364 41.2227C92.3809 40.471 93 39.2628 93 37.976ZM127.839 84.1645L130.511 80.0443C130.648 79.8333 130.92 79.7567 131.147 79.8656L133.567 81.0272C134.231 81.3458 135 80.862 135 80.1257V65.5512C135 63.8102 132.93 62.9005 131.647 64.0779L127.619 67.7766C126.587 68.7236 126 70.0596 126 71.4598V83.6203C126 84.6163 127.297 85.0001 127.839 84.1645Z" fill="white"/>
<path d="M83.9182 80.6385L114.618 56.7288C116.157 55.5304 118.221 55.2507 120.023 55.9965C121.679 56.6816 121.995 58.8903 120.598 60.0125L91.9996 82.9895C90.8183 83.9386 90.1312 85.3721 90.1312 86.8874V140.57C90.1312 143.32 87.461 145.278 84.8382 144.452C83.1433 143.919 81.9905 142.347 81.9905 140.57L81.9905 84.5833C81.9905 83.0415 82.7018 81.5859 83.9182 80.6385Z" fill="url(#paint1_linear_1002_4654)"/>
<path d="M61.7048 66.7646L98.1567 40.2731C99.1918 39.5208 100.533 39.3306 101.736 39.7652C104.638 40.8132 105.198 44.674 102.713 46.5028L68.7985 71.4621C66.7574 72.9643 64.0038 73.0605 61.8627 71.7045C60.0803 70.5757 59.9982 68.0049 61.7048 66.7646Z" fill="url(#paint2_linear_1002_4654)"/>
<defs>
<linearGradient id="paint0_linear_1002_4654" x1="9.5" y1="-3.03119e-06" x2="140" y2="173.5" gradientUnits="userSpaceOnUse">
<stop offset="0.065" stop-color="#FC76F2"/>
<stop offset="0.49" stop-color="#B55BF8"/>
<stop offset="0.971278" stop-color="#8A64FC"/>
</linearGradient>
<linearGradient id="paint1_linear_1002_4654" x1="113.945" y1="67.4489" x2="62.3017" y2="106.99" gradientUnits="userSpaceOnUse">
<stop stop-color="white"/>
<stop offset="1" stop-color="white" stop-opacity="0"/>
</linearGradient>
<linearGradient id="paint2_linear_1002_4654" x1="96.7468" y1="43.9054" x2="82.3296" y2="78.8168" gradientUnits="userSpaceOnUse">
<stop stop-color="white" stop-opacity="0"/>
<stop offset="1" stop-color="white"/>
</linearGradient>
</defs>
</svg>
