<svg width="180" height="180" viewBox="0 0 180 180" fill="none" xmlns="http://www.w3.org/2000/svg">
<rect width="180" height="180" rx="54" fill="white"/>
<path d="M92 31.737V38.226C92 39.5128 91.3809 40.7211 90.3364 41.4727L57.2289 65.2979C53.774 67.7841 53.9346 72.9774 57.5367 75.2453L57.7066 75.3523C61.1988 77.5511 65.6832 77.3788 68.9965 74.9185L108.791 45.3682C111.959 43.0154 116.215 42.7461 119.655 44.681L135.961 53.8531C137.221 54.5616 138 55.8943 138 57.3394V104.206C138 108.548 136.235 112.703 133.111 115.718L105.167 142.688C101.357 146.365 95 143.665 95 138.371V88.3837C95 86.561 95.8285 84.8372 97.2518 83.6985L125.191 61.3471C127.452 59.5383 127.102 56.001 124.53 54.6707L121.15 52.9223C117.702 51.1392 113.535 51.5118 110.458 53.8782L78.8417 78.1987C77.3652 79.3344 76.5 81.0916 76.5 82.9544V136.238C76.5 138.681 74.3175 140.559 71.9144 140.124C57.7239 137.551 53.1023 134.102 47.0364 129.248C43.2894 126.249 41 121.726 41 116.927V67.3518C41 64.0083 42.671 60.886 45.453 59.0313L88.8906 30.0729C90.2197 29.1869 92 30.1396 92 31.737Z" fill="url(#paint0_linear_1002_4662)"/>
<path d="M129.51 82.7788L126.848 87.0407C126.316 87.893 125 87.5159 125 86.511V73.7217C125 72.3542 125.56 71.0464 126.55 70.1028L130.62 66.2225C131.893 65.0088 134 65.9112 134 67.67V82.8958C134 83.6386 133.219 84.1222 132.554 83.7908L130.157 82.5961C129.926 82.4812 129.646 82.5603 129.51 82.7788Z" fill="url(#paint1_linear_1002_4662)"/>
<path d="M82.9182 80.8885L113.618 56.9788C115.157 55.7804 117.221 55.5007 119.023 56.2465C120.679 56.9316 120.995 59.1403 119.598 60.2625L90.9996 83.2395C89.8183 84.1886 89.1312 85.6221 89.1312 87.1374V140.82C89.1312 143.57 86.461 145.528 83.8382 144.702C82.1433 144.169 80.9905 142.597 80.9905 140.82L80.9905 84.8333C80.9905 83.2915 81.7018 81.8359 82.9182 80.8885Z" fill="url(#paint2_linear_1002_4662)"/>
<path d="M60.7048 67.0146L97.1567 40.5231C98.1918 39.7708 99.5325 39.5806 100.736 40.0152C103.638 41.0632 104.198 44.924 101.713 46.7528L67.7985 71.7121C65.7574 73.2143 63.0038 73.3105 60.8627 71.9545C59.0803 70.8257 58.9982 68.2549 60.7048 67.0146Z" fill="url(#paint3_linear_1002_4662)"/>
<defs>
<linearGradient id="paint0_linear_1002_4662" x1="50.564" y1="38.8409" x2="126.38" y2="128.654" gradientUnits="userSpaceOnUse">
<stop stop-color="#F97BD8"/>
<stop offset="0.661348" stop-color="#BD73FC"/>
<stop offset="1" stop-color="#8C70FB"/>
</linearGradient>
<linearGradient id="paint1_linear_1002_4662" x1="129.5" y1="68.066" x2="129.5" y2="90" gradientUnits="userSpaceOnUse">
<stop stop-color="white" stop-opacity="0.8"/>
<stop offset="1" stop-color="white" stop-opacity="0"/>
</linearGradient>
<linearGradient id="paint2_linear_1002_4662" x1="112.945" y1="67.6989" x2="61.3017" y2="107.24" gradientUnits="userSpaceOnUse">
<stop stop-color="#ECAAFB"/>
<stop offset="1" stop-color="#F6AAFB" stop-opacity="0"/>
</linearGradient>
<linearGradient id="paint3_linear_1002_4662" x1="95.7468" y1="44.1554" x2="81.3296" y2="79.0668" gradientUnits="userSpaceOnUse">
<stop stop-color="#F6AAFB" stop-opacity="0"/>
<stop offset="1" stop-color="#F6AAFB"/>
</linearGradient>
</defs>
</svg>
