<svg width="81" height="80" viewBox="0 0 81 80" fill="none" xmlns="http://www.w3.org/2000/svg">
<path d="M0.5 40C0.5 21.1438 0.5 11.7157 6.35786 5.85786C12.2157 0 21.6438 0 40.5 0C59.3562 0 68.7843 0 74.6421 5.85786C80.5 11.7157 80.5 21.1438 80.5 40C80.5 58.8562 80.5 68.2843 74.6421 74.1421C68.7843 80 59.3562 80 40.5 80C21.6438 80 12.2157 80 6.35786 74.1421C0.5 68.2843 0.5 58.8562 0.5 40Z" fill="white"/>
<path opacity="0.4" d="M24.2109 45.7891V47H15.8223V32.9082H17.1504V45.7891H24.2109ZM31.2422 32.6836C35.168 32.6836 37.6484 35.4961 37.6484 39.959C37.6484 44.4219 35.1777 47.2246 31.2422 47.2246C27.3164 47.2246 24.8457 44.4219 24.8457 39.959C24.8457 35.4961 27.3164 32.6836 31.2422 32.6836ZM31.2422 33.9238C28.1562 33.9238 26.2129 36.2578 26.2129 39.959C26.2129 43.6504 28.166 45.9844 31.2422 45.9844C34.3281 45.9844 36.2812 43.6504 36.2812 39.959C36.2812 36.2578 34.3281 33.9238 31.2422 33.9238ZM51.3398 41.2773C51.3398 44.998 49.1523 47.2246 45.4902 47.2246C41.6719 47.2246 39.1621 44.3145 39.1621 39.8711C39.1621 35.5059 41.6426 32.6836 45.4902 32.6836C48.4492 32.6836 50.7246 34.4512 51.252 37.1465H49.8652C49.2891 35.1348 47.6387 33.9238 45.4902 33.9238C42.4336 33.9238 40.5293 36.1992 40.5293 39.8711C40.5293 43.5918 42.4727 45.9844 45.4902 45.9844C48.2148 45.9844 50.0117 44.2461 50.0117 41.5898V41.0918H45.6367V39.9199H51.3398V41.2773ZM59.3281 32.6836C63.2539 32.6836 65.7344 35.4961 65.7344 39.959C65.7344 44.4219 63.2637 47.2246 59.3281 47.2246C55.4023 47.2246 52.9316 44.4219 52.9316 39.959C52.9316 35.4961 55.4023 32.6836 59.3281 32.6836ZM59.3281 33.9238C56.2422 33.9238 54.2988 36.2578 54.2988 39.959C54.2988 43.6504 56.252 45.9844 59.3281 45.9844C62.4141 45.9844 64.3672 43.6504 64.3672 39.959C64.3672 36.2578 62.4141 33.9238 59.3281 33.9238Z" fill="black"/>
</svg>
