<svg width="25" height="23" viewBox="0 0 25 23" fill="none" xmlns="http://www.w3.org/2000/svg">
<g id="Group 427321107">
<path id="Vector 1107" d="M20.75 23H4.75C2.54086 23 0.75 21.2091 0.75 19V11.5309C0.75 10.3122 1.30556 9.16005 2.25909 8.40116L10.3104 1.99323C11.7745 0.827979 13.8508 0.833453 15.3087 2.0064L23.2574 8.40135C24.2011 9.16063 24.75 10.3067 24.75 11.5179V19C24.75 21.2091 22.9591 23 20.75 23Z" fill="#E3E3E6"/>
<path id="Rectangle 11112382" d="M9.75 14C9.75 12.3431 11.0931 11 12.75 11C14.4069 11 15.75 12.3431 15.75 14V19.5C15.75 20.6046 14.8546 21.5 13.75 21.5H11.75C10.6454 21.5 9.75 20.6046 9.75 19.5V14Z" fill="#C0C0CC"/>
</g>
</svg>
