<svg width="343" height="81" viewBox="0 0 343 81" fill="none" xmlns="http://www.w3.org/2000/svg">
<path d="M232 6.75C235.099 6.75 237.67 4.49529 238.164 1.537C238.239 1.08707 238.594 0.75 239 0.75H327C335.698 0.75 342.75 7.80152 342.75 16.5V64.5C342.75 73.1985 335.698 80.25 327 80.25H239C238.594 80.25 238.239 79.9129 238.164 79.463C237.67 76.5047 235.099 74.25 232 74.25C228.901 74.25 226.33 76.5047 225.836 79.463C225.761 79.9129 225.406 80.25 225 80.25H16C7.30152 80.25 0.25 73.1985 0.25 64.5V16.5C0.25 7.80151 7.30151 0.75 16 0.75H225C225.406 0.75 225.761 1.08708 225.836 1.537C226.33 4.49529 228.901 6.75 232 6.75Z" fill="#FCEDCF" stroke="#F8D177" stroke-width="0.5"/>
</svg>
